<svg xmlns="http://www.w3.org/2000/svg" width="512" height="512" viewBox="0 0 512 512" version="1.1">
	<path d="M 237.565 45.082 C 232.100 45.600, 222.425 47.177, 216.065 48.585 C 138.783 65.693, 78.516 121.345, 57.031 195.441 C 50.141 219.203, 49.555 223.863, 49.552 255 C 49.550 282.257, 49.668 284.055, 52.275 296.224 C 64.024 351.068, 96.707 398.986, 143 429.240 C 203.984 469.095, 282.435 473.755, 347.299 441.375 C 389.690 420.213, 420.766 389.932, 440.048 351 C 456.102 318.583, 463 290.790, 463 258.517 C 463 210.538, 447.797 164.674, 419.410 127.016 C 411.846 116.982, 391.619 96.632, 381.500 88.875 C 351.897 66.182, 318.554 51.637, 284.378 46.507 C 271.629 44.593, 249.734 43.926, 237.565 45.082 M 238.054 56.076 C 204.365 59.880, 167.995 74.639, 139.500 96.071 C 114.639 114.769, 96.669 136.487, 81.943 165.630 C 53.343 222.232, 53.254 285.560, 81.696 342.371 C 99.139 377.213, 123.272 403.613, 155.229 422.809 C 213.261 457.668, 278.685 461.365, 337.500 433.107 C 397.113 404.466, 433.868 357.166, 448.153 290.705 C 450.730 278.715, 451.695 252.251, 450.075 237.976 C 446.827 209.357, 437.027 178.804, 423.344 154.638 C 398.318 110.439, 350.067 73.991, 299.500 61.089 C 279.707 56.039, 255.719 54.082, 238.054 56.076 M 140 150.694 C 137.614 151.547, 136 154.154, 136 157.156 C 136 160.954, 133.564 162, 124.721 162 C 115.620 162, 114 163.294, 114 170.559 C 114 174.486, 114.745 176.657, 117.750 181.480 L 121.500 187.500 121.770 256.295 L 122.040 325.090 119.014 326.145 C 115.247 327.458, 114.605 329.820, 115.875 337.706 C 117.044 344.961, 118.988 349.059, 122.615 351.912 C 125.241 353.977, 125.933 354, 185.635 354 C 257.288 354, 250 355.641, 250 339.508 C 250 330.100, 249.794 328.888, 248 327.768 C 246.032 326.539, 246 325.436, 246 258.387 C 246 191.135, 246.027 190.192, 248.121 185.460 C 249.855 181.539, 250.156 179.328, 249.771 173.327 C 249.119 163.180, 248.046 162.158, 237.644 161.789 L 229.529 161.500 228.891 157.562 C 227.628 149.759, 229.054 149.990, 182.639 150.079 C 160.013 150.122, 140.825 150.399, 140 150.694 M 284.500 150.700 C 281.646 151.369, 280 153.884, 280 157.578 C 280 160.580, 279.744 160.807, 275.750 161.344 C 273.413 161.659, 268.800 161.917, 265.500 161.919 C 260.572 161.921, 259.187 162.306, 257.750 164.072 C 255.285 167.100, 255.414 175.526, 257.990 179.752 C 259.911 182.902, 259.981 185.216, 260.236 253.752 L 260.500 324.500 258.381 326.219 C 255.517 328.544, 254.846 332.731, 256.397 338.609 C 258.133 345.185, 260.419 349.398, 263.615 351.912 C 266.242 353.978, 266.920 354, 327.563 354 C 381.952 354, 389.034 353.823, 390.429 352.429 C 391.293 351.564, 392.029 350.327, 392.065 349.679 C 393.016 332.339, 392.854 328.942, 390.995 327.210 C 389.164 325.504, 389.088 322.874, 388.960 256.469 C 388.869 208.927, 389.165 186.625, 389.914 184.685 C 391.605 180.302, 391.296 166.868, 389.443 164.223 C 388.060 162.248, 387.014 162, 380.057 162 L 372.227 162 371.555 157.515 C 370.388 149.735, 371.906 149.984, 326.527 150.116 C 304.512 150.180, 285.600 150.443, 284.500 150.700 M 144.471 159.047 C 143.552 160.533, 145.931 169.788, 147.680 171.537 C 149.470 173.327, 164.589 173.492, 188.500 171.984 C 214.830 170.322, 220 168.819, 220 162.820 C 220 160.660, 219.366 159.709, 217.435 158.975 C 213.831 157.605, 145.320 157.673, 144.471 159.047 M 288.456 159.071 C 287.299 160.944, 289.070 169.070, 291.072 171.072 C 292.713 172.713, 294.452 172.999, 302.750 172.996 C 315.689 172.992, 342.873 171.233, 351 169.875 C 359.219 168.502, 362 166.809, 362 163.177 C 362 161.650, 361.460 159.860, 360.800 159.200 C 359.190 157.590, 289.448 157.465, 288.456 159.071 M 123.066 170.420 C 122.132 171.546, 122.659 173.313, 125.617 178.958 L 129.345 186.076 129.731 254.788 C 129.944 292.580, 130.434 323.821, 130.822 324.214 C 131.210 324.606, 155.097 324.980, 183.904 325.045 C 226.515 325.140, 236.439 324.914, 237.126 323.831 C 237.590 323.099, 237.976 292.929, 237.985 256.788 C 238 191.965, 238.029 190.997, 240.155 185.315 C 242.433 179.226, 242.753 172.613, 240.879 170.354 C 239.599 168.811, 230 168.456, 230 169.951 C 230 170.474, 230.677 173.501, 231.504 176.678 C 233.191 183.153, 232.609 191.248, 230.291 193.566 C 229.090 194.767, 221.878 195, 185.964 195 C 144.462 195, 143.037 195.063, 142.027 196.950 C 141.328 198.255, 141.069 217.682, 141.242 255.700 L 141.500 312.500 151 312.829 C 156.225 313.010, 175.012 312.846, 192.750 312.464 L 225 311.769 225 290.466 C 225 278.750, 224.727 268.452, 224.393 267.582 C 223.860 266.194, 220.499 266, 196.952 266 C 180.519 266, 169.883 265.620, 169.513 265.021 C 169.180 264.482, 169.394 263.132, 169.989 262.021 C 171.036 260.065, 171.995 260, 199.978 260 C 228.718 260, 228.896 260.013, 230.443 262.223 C 231.752 264.090, 232 268.442, 232 289.500 C 232 310.558, 231.752 314.910, 230.443 316.777 L 228.887 319 184.098 319 C 141.901 319, 139.214 318.894, 137.647 317.163 C 136.129 315.485, 136.007 310.064, 136.242 254.937 L 136.500 194.548 139.500 193.564 C 141.150 193.023, 142.643 192.495, 142.817 192.390 C 142.991 192.285, 142.656 188.761, 142.071 184.558 C 141.038 177.131, 138.872 171.261, 136.610 169.765 C 134.567 168.413, 124.321 168.909, 123.066 170.420 M 264 171.499 C 264 172.919, 264.934 175.910, 266.075 178.148 C 268.120 182.155, 268.149 183.245, 268.041 251.047 C 267.981 288.904, 268.220 321.030, 268.574 322.439 L 269.217 325 324.501 325 C 375.469 325, 379.837 324.868, 380.434 323.311 C 380.791 322.382, 381.027 291.445, 380.959 254.561 C 380.848 194.167, 381.005 186.893, 382.542 181.394 C 384.023 176.092, 384.066 174.908, 382.866 172.394 C 381.702 169.955, 380.803 169.451, 377.140 169.187 L 372.795 168.875 373.648 174.187 C 374.883 181.885, 374.422 189.708, 372.566 192.540 L 370.954 195 329.536 195 C 303.568 195, 287.892 194.634, 287.512 194.020 C 287.179 193.481, 286.222 189.094, 285.386 184.270 C 284.550 179.447, 283.085 174.150, 282.130 172.500 C 280.451 169.598, 280.127 169.491, 272.197 169.210 L 264 168.919 264 171.499 M 209.398 175.024 C 200.209 176.488, 159.158 180, 151.230 180 C 150.004 180, 149 180.428, 149 180.951 C 149 181.513, 152.381 181.717, 157.250 181.450 C 161.787 181.202, 176.975 180.518, 191 179.932 C 205.025 179.346, 217.508 178.623, 218.741 178.327 C 221.830 177.584, 223.027 180.752, 220.412 182.753 C 218.811 183.979, 215.004 184.120, 197 183.615 C 185.175 183.284, 169.740 183.306, 162.701 183.663 C 150.456 184.285, 149.915 184.404, 150.201 186.407 C 150.469 188.283, 151.277 188.534, 158 188.833 C 162.125 189.016, 178.694 188.851, 194.819 188.467 L 224.138 187.767 225.135 185.144 C 226.795 180.779, 224.095 172.580, 221.179 173.127 C 220.805 173.197, 215.504 174.051, 209.398 175.024 M 352 174.545 C 347.875 175.256, 335.725 176.573, 325 177.470 C 292.111 180.222, 289.039 180.952, 312.500 180.438 C 324.050 180.186, 340.137 179.689, 348.250 179.336 C 361.647 178.751, 363 178.846, 363 180.371 C 363 183.458, 358.450 184.056, 340.144 183.376 C 330.440 183.015, 315.837 183.056, 307.694 183.467 C 293.324 184.192, 292.898 184.277, 293.194 186.357 L 293.500 188.500 329.425 188.276 C 357.270 188.103, 365.532 187.765, 366.160 186.776 C 367.316 184.954, 367.189 177.222, 365.965 174.934 C 364.774 172.710, 362.940 172.659, 352 174.545 M 275.713 194.621 C 275.321 195.013, 275 222.008, 275 254.611 L 275 313.888 277.413 316.694 L 279.827 319.500 325.163 319.194 C 350.099 319.025, 371.277 318.661, 372.228 318.383 C 375.391 317.461, 376.148 310.841, 375.817 286.999 C 375.528 266.188, 375.333 264.021, 373.582 262.088 C 371.700 260.011, 371.099 259.975, 342.582 260.235 L 313.500 260.500 313.500 263 L 313.500 265.500 340.224 265.766 C 364.418 266.007, 367.029 266.197, 367.816 267.766 C 368.295 268.720, 368.644 278.942, 368.593 290.481 L 368.500 311.463 364.500 312.174 C 362.300 312.565, 342.621 312.911, 320.769 312.942 L 281.038 313 280.484 310.750 C 279.806 307.996, 280.300 198.100, 281 196 C 281.344 194.969, 280.706 194.407, 278.963 194.204 C 277.567 194.041, 276.104 194.229, 275.713 194.621 M 184 203.981 L 147.500 204.500 147.500 207 L 147.500 209.500 185.348 209.599 C 216.633 209.681, 223.349 209.941, 224.082 211.099 C 226.541 214.982, 226.366 215, 186 215 C 152 215, 147 215.192, 147 216.500 C 147 217.782, 149.815 218, 166.339 218 C 176.976 218, 194.549 218.297, 205.390 218.660 L 225.102 219.320 224.801 221.910 L 224.500 224.500 185.750 224.762 C 152.364 224.987, 147 225.228, 147 226.500 C 147 227.772, 152.364 228.013, 185.750 228.238 L 224.500 228.500 224.811 230.682 C 225.406 234.862, 223.058 235.109, 184.223 234.940 C 151.186 234.796, 147.468 234.942, 147.177 236.390 C 146.884 237.848, 150.501 238, 185.427 238 L 224 238 224 241 L 224 244 186.059 244 C 165.191 244, 147.888 244.372, 147.607 244.826 C 147.326 245.281, 147.352 246.631, 147.665 247.826 L 148.233 250 188.494 250 C 224.693 250, 228.894 249.833, 230.128 248.349 C 231.150 247.119, 231.580 242.108, 231.815 228.677 C 231.988 218.764, 231.875 209.639, 231.564 208.397 C 230.632 204.684, 228.194 202.979, 224.179 203.231 C 222.155 203.358, 204.075 203.696, 184 203.981 M 327.750 203.762 L 289 204.023 289 206.512 C 289 207.880, 289.113 209.074, 289.250 209.164 C 289.387 209.253, 306.825 209.591, 328 209.914 L 366.500 210.500 366.820 212.750 L 367.139 215 328.629 215 C 292.923 215, 287.046 215.379, 289.208 217.541 C 289.432 217.765, 304.440 218.030, 322.558 218.130 C 340.676 218.229, 358.113 218.508, 361.307 218.751 C 366.910 219.176, 367.104 219.285, 366.807 221.846 L 366.500 224.500 327.750 224.762 C 294.364 224.987, 289 225.228, 289 226.500 C 289 227.772, 294.364 228.013, 327.750 228.238 L 366.500 228.500 366.811 231.193 C 367.085 233.570, 366.706 233.965, 363.586 234.550 C 361.642 234.915, 346.202 235.042, 329.275 234.833 C 296.632 234.431, 289.902 234.751, 289.248 236.738 C 288.930 237.705, 297.346 238.034, 327.671 238.238 L 366.500 238.500 366.500 241 L 366.500 243.500 328.863 243.762 C 299.891 243.964, 290.982 244.317, 290.170 245.295 C 287.266 248.795, 289.813 249.075, 330.330 249.704 C 367.732 250.286, 370.102 250.217, 371.994 248.505 C 373.873 246.805, 374 245.439, 374 227 C 374 209.500, 373.805 207.139, 372.250 205.773 C 371.288 204.928, 369.600 204.071, 368.500 203.868 C 367.400 203.666, 349.063 203.618, 327.750 203.762 M 147 262.500 C 147 264.941, 147.174 265, 154.393 265 C 161.712 265, 163 264.389, 163 260.918 C 163 260.413, 159.400 260, 155 260 C 147.133 260, 147 260.042, 147 262.500 M 296.186 260.745 C 288.266 261.067, 287.887 261.188, 288.186 263.291 C 288.482 265.372, 288.994 265.500, 297 265.500 L 305.500 265.500 305.816 262.750 C 305.990 261.238, 305.765 260.092, 305.316 260.204 C 304.867 260.315, 300.759 260.559, 296.186 260.745 M 146 273.042 C 146 274.947, 146.518 275.065, 153.739 274.792 C 160.177 274.549, 161.535 274.206, 161.812 272.750 C 162.108 271.200, 161.223 271, 154.073 271 C 146.611 271, 146 271.155, 146 273.042 M 288.667 271.667 C 288.300 272.033, 288 272.933, 288 273.667 C 288 274.673, 290.083 275, 296.500 275 C 304.333 275, 305 274.843, 305 273 C 305 271.170, 304.333 271, 297.167 271 C 292.858 271, 289.033 271.300, 288.667 271.667 M 188 276.500 L 188 279 202.918 279 C 211.123 279, 218.548 278.727, 219.418 278.393 C 220.288 278.059, 221 276.934, 221 275.893 C 221 274.112, 220.022 274, 204.500 274 L 188 274 188 276.500 M 331.336 275.567 C 330.114 278.751, 332.557 279.224, 348.326 278.859 C 356.855 278.662, 364.152 278.182, 364.540 277.793 C 364.929 277.404, 364.981 276.392, 364.655 275.543 C 363.762 273.215, 332.230 273.238, 331.336 275.567 M 148.750 281.675 C 145.755 282.174, 145.049 284.421, 147.582 285.393 C 150.929 286.677, 159.044 286.048, 159.655 284.457 C 159.981 283.608, 160.062 282.729, 159.836 282.503 C 159.100 281.767, 151.571 281.204, 148.750 281.675 M 288.472 283.045 C 287.134 285.211, 289.746 286.096, 296.599 285.799 C 301.934 285.568, 303.500 285.160, 303.500 284 C 303.500 282.833, 301.907 282.435, 296.335 282.208 C 291.792 282.023, 288.915 282.329, 288.472 283.045 M 188 288.976 C 188 290.929, 188.599 291, 205.073 291 C 220.795 291, 222.120 290.861, 221.811 289.250 C 221.509 287.680, 219.755 287.472, 204.737 287.226 C 188.510 286.960, 188 287.013, 188 288.976 M 331.616 288.558 C 331.277 289.441, 331 290.352, 331 290.582 C 331 290.812, 338.683 291, 348.073 291 C 363.795 291, 365.120 290.861, 364.811 289.250 C 364.510 287.683, 362.785 287.471, 348.354 287.226 C 334.311 286.987, 332.153 287.159, 331.616 288.558 M 147 301.441 C 147 303.884, 147.480 306.179, 148.067 306.541 C 149.593 307.484, 149.697 307.052, 149.223 301.750 C 148.687 295.749, 147 295.515, 147 301.441 M 153.667 297.667 C 152.834 298.500, 152.797 303.307, 153.607 305.418 C 153.941 306.288, 154.841 307, 155.607 307 C 156.612 307, 157 305.607, 157 302 C 157 298.500, 156.600 297, 155.667 297 C 154.933 297, 154.033 297.300, 153.667 297.667 M 289 301.441 C 289 303.884, 289.480 306.179, 290.067 306.541 C 291.593 307.484, 291.697 307.052, 291.223 301.750 C 290.687 295.749, 289 295.515, 289 301.441 M 295.070 302.191 C 295.122 306.080, 295.370 306.965, 296 305.500 C 297.198 302.713, 297.198 298.240, 296 297.500 C 295.378 297.116, 295.027 298.890, 295.070 302.191 M 299.015 302.309 C 299.006 305.931, 299.377 307.885, 300 307.500 C 301.276 306.712, 301.276 299.974, 300 298 C 299.313 296.936, 299.026 298.190, 299.015 302.309 M 155.252 301.500 C 155.263 303.700, 155.468 304.482, 155.707 303.238 C 155.946 301.994, 155.937 300.194, 155.687 299.238 C 155.437 298.282, 155.241 299.300, 155.252 301.500 M 188 303.500 L 188 306.048 204.750 305.774 C 220.742 305.512, 221.500 305.409, 221.500 303.500 C 221.500 301.591, 220.742 301.488, 204.750 301.226 L 188 300.952 188 303.500 M 331.556 301.910 C 331.247 302.410, 331.268 303.535, 331.604 304.410 C 332.127 305.774, 334.544 306, 348.607 306 L 365 306 365 303.500 L 365 301 348.559 301 C 339.516 301, 331.865 301.409, 331.556 301.910 M 124.450 333.271 C 124.115 334.142, 123.990 335.900, 124.171 337.177 L 124.500 339.500 183.750 339.758 C 240.436 340.005, 243 339.937, 243 338.199 C 243 337.200, 242.418 335.586, 241.706 334.612 C 240.503 332.967, 236.369 332.802, 182.735 332.265 C 130.695 331.744, 124.998 331.842, 124.450 333.271 M 265.250 332.706 C 262.991 333.141, 262.388 335.240, 263.607 338.418 C 264.151 339.836, 270.465 340, 324.670 340 L 385.127 340 384.813 336.750 L 384.500 333.500 372.500 332.886 C 358.932 332.191, 268.709 332.040, 265.250 332.706 M 126 347.250 C 126 347.663, 152.325 348, 184.500 348 C 216.675 348, 243 347.663, 243 347.250 C 243 346.837, 216.675 346.500, 184.500 346.500 C 152.325 346.500, 126 346.837, 126 347.250 M 267 347.250 C 267 347.663, 293.887 347.897, 326.750 347.771 C 359.613 347.645, 377.050 347.421, 365.500 347.273 C 311.327 346.580, 266.999 346.569, 267 347.250" stroke="none" fill="#fff" fill-rule="evenodd"/>
</svg>
